HIERARCHY
ROOT hip
{
	OFFSET 0.000000 0.000000 0.000000 
	CHANNELS 6 Xposition Yposition Zposition Xrotation Zrotation Yrotation
	JOINT abdomen
	{
		OFFSET 0.000000 3.402643 0.000000 
		CHANNELS 3 Xrotation Zrotation Yrotation
		JOINT chest
		{
			OFFSET 0.000000 8.438565 -0.680529 
			CHANNELS 3 Xrotation Zrotation Yrotation
			JOINT neck
			{
				OFFSET 0.000000 10.207942 -0.272212 
				CHANNELS 3 Xrotation Zrotation Yrotation
				JOINT head
				{
					OFFSET 0.000000 3.130431 0.000000 
					CHANNELS 3 Xrotation Zrotation Yrotation
					End Site
					{
						OFFSET 0.000000 3.130435 0.000000 
					}
				}
			}
			JOINT lCollar
			{
				OFFSET 3.470700 6.669187 -0.816635 
				CHANNELS 3 Yrotation Zrotation Xrotation
				JOINT lShldr
				{
					OFFSET 3.198488 0.000000 0.000000 
					CHANNELS 3 Zrotation Yrotation Xrotation
					JOINT lForeArm
					{
						OFFSET 10.139888 0.000000 0.000000 
						CHANNELS 3 Yrotation Zrotation Xrotation
						JOINT lHand
						{
							OFFSET 8.370511 0.000000 0.000000 
							CHANNELS 3 Zrotation Yrotation Xrotation
							End Site
							{
								OFFSET 4.083176 0.000000 0.000000 
							}
						}
					}
				}
			}
			JOINT rCollar
			{
				OFFSET -3.470700 6.669187 -0.816635 
				CHANNELS 3 Yrotation Zrotation Xrotation
				JOINT rShldr
				{
					OFFSET -3.198488 0.000000 0.000000 
					CHANNELS 3 Zrotation Yrotation Xrotation
					JOINT rForeArm
					{
						OFFSET -10.139888 0.000000 0.000000 
						CHANNELS 3 Yrotation Zrotation Xrotation
						JOINT rHand
						{
							OFFSET -8.370511 0.000000 0.000000 
							CHANNELS 3 Zrotation Yrotation Xrotation
							End Site
							{
								OFFSET -4.083176 0.000000 0.000000 
							}
						}
					}
				}
			}
		}
	}
	JOINT lThigh
	{
		OFFSET 5.308129 -1.633274 1.361059 
		CHANNELS 3 Xrotation Zrotation Yrotation
		JOINT lShin
		{
			OFFSET -2.041588 -20.007561 0.000000 
			CHANNELS 3 Xrotation Zrotation Yrotation
			JOINT lFoot
			{
				OFFSET 0.000000 -19.190928 -1.224953 
				CHANNELS 3 Xrotation Yrotation Zrotation
				End Site
				{
					OFFSET 0.000000 -2.449906 4.627600 
				}
			}
		}
	}
	JOINT rThigh
	{
		OFFSET -5.308129 -1.633274 1.361059 
		CHANNELS 3 Xrotation Zrotation Yrotation
		JOINT rShin
		{
			OFFSET 2.041588 -20.007561 0.000000 
			CHANNELS 3 Xrotation Zrotation Yrotation
			JOINT rFoot
			{
				OFFSET 0.000000 -19.190928 -1.224953 
				CHANNELS 3 Xrotation Yrotation Zrotation
				End Site
				{
					OFFSET 0.000000 -2.449906 4.627600 
				}
			}
		}
	}
}
MOTION
Frames: 10
Frame Time: 0.016667
0.156990 54.114853 0.040160 -9.023438 2.822266 0.000481 28.536060 -4.739134 -1.194976 -1.435491 1.845059 -2.266098 -7.103475 4.426043 -0.383412 12.141812 -2.421739 7.281650 -8.042232 -9.989078 -0.518171 -66.200371 12.736156 -20.113321 -21.898983 -5.000000 32.165775 -23.973911 2.734856 17.733318 6.054863 15.313641 -0.810811 62.353172 -4.687411 -8.874908 17.843679 5.000000 30.529644 19.386110 -9.873548 0.207497 17.078199 7.069427 -1.219738 0.214793 -5.948460 -0.262923 -7.885488 12.725866 -2.204951 17.897106 -9.069309 1.628199 0.301388 0.846283 -0.021137 -6.794822 -20.330690 6.921596 
0.159436 54.116074 0.053600 -9.044888 2.812499 -0.039015 28.525293 -4.727717 -1.169038 -1.415016 1.845084 -2.246582 -7.123136 4.445354 -0.386332 12.141812 -2.421739 7.281650 -8.042323 -9.998830 -0.518674 -66.197792 12.719334 -20.099632 -22.003588 -5.000000 32.050880 -24.020563 2.826639 17.751949 5.995984 15.294137 -0.807224 62.337013 -4.639594 -8.800994 17.869402 5.000000 30.489620 19.387651 -9.888695 0.191840 17.144262 7.068441 -1.170664 0.185679 -5.949647 -0.271037 -7.902940 12.697839 -2.237266 17.926998 -9.070650 1.677608 0.280916 0.853216 -0.031932 -6.781363 -20.362707 6.897174 
0.161147 54.115829 0.061906 -9.037016 2.792966 -0.078032 28.495974 -4.699689 -1.156761 -1.414701 1.845092 -2.246587 -7.123071 4.435699 -0.384872 12.142639 -2.411999 7.291409 -8.034353 -10.007215 -0.528700 -66.176941 12.682172 -20.028761 -22.071014 -5.000000 31.954708 -24.036695 2.877573 17.753057 5.986075 15.284388 -0.806720 62.292549 -4.600716 -8.732588 17.890900 5.000000 30.465549 19.379072 -9.856757 0.133277 17.171379 7.057918 -1.133184 0.165217 -5.930244 -0.239344 -7.894361 12.684215 -2.255511 17.907068 -9.060081 1.749772 0.281075 0.863381 -0.041857 -6.734413 -20.404545 6.864395 
0.162367 54.114609 0.066790 -9.018839 2.753901 -0.107298 28.466364 -4.666343 -1.131783 -1.414953 1.854854 -2.236820 -7.123005 4.426043 -0.383412 12.142651 -2.402155 7.320681 -8.024680 -10.016971 -0.529203 -66.153183 12.637068 -19.940285 -22.121153 -5.000000 31.863581 -24.025787 2.911619 17.737801 5.995984 15.294137 -0.807224 62.238419 -4.563213 -8.664249 17.901653 5.000000 30.454605 19.363743 -9.809160 0.061487 17.179873 7.066913 -1.101331 0.146788 -5.920817 -0.228989 -7.894094 12.738165 -2.219550 17.873190 -9.057756 1.799566 0.301994 0.887370 -0.031523 -6.708050 -20.384600 6.878906 
0.162854 54.113880 0.071428 -9.010877 2.724600 -0.146319 28.427454 -4.638589 -1.118870 -1.405439 1.864617 -2.236818 -7.113175 4.416388 -0.381952 12.133722 -2.392416 7.330437 -8.023063 -10.028087 -0.520183 -66.120445 12.586307 -19.851521 -22.168596 -5.000000 31.781160 -24.012838 2.925104 17.752680 6.005892 15.303889 -0.810305 62.194698 -4.528674 -8.604599 17.927391 5.000000 30.414583 19.343563 -9.780525 0.013613 17.211555 7.097508 -1.065511 0.106538 -5.921733 -0.224483 -7.878646 12.711056 -2.224026 17.854712 -9.047878 1.831948 0.310479 0.884590 -0.001759 -6.689296 -20.388245 6.902283 
0.160407 54.115101 0.075092 -9.012768 2.734361 -0.185336 28.407995 -4.644940 -1.131728 -1.405690 1.874379 -2.227051 -7.094324 4.405270 -0.390119 12.108974 -2.363462 7.310925 -8.032918 -10.037837 -0.520686 -66.071838 12.550008 -19.778316 -22.222023 -5.000000 31.707720 -23.977934 2.847057 17.803417 6.025424 15.303889 -0.810306 62.171345 -4.512959 -8.546792 17.989239 5.000000 30.246277 19.304258 -9.827494 0.064923 17.221735 7.077593 -1.020263 0.088117 -5.931999 -0.233304 -7.890648 12.729108 -2.223338 17.836229 -9.059035 1.879567 0.339679 0.884166 -0.029727 -6.744115 -20.403831 6.906341 
0.157962 54.116318 0.078753 -9.005374 2.744118 -0.234574 28.387506 -4.658797 -1.126602 -1.405942 1.884141 -2.207518 -7.074726 4.395615 -0.388658 12.074836 -2.334557 7.281255 -8.042685 -10.037838 -0.520686 -66.022873 12.522528 -19.701221 -22.266788 -5.000000 31.634022 -23.949705 2.780447 17.850142 6.044956 15.303891 -0.810305 62.147186 -4.484023 -8.484181 18.051010 5.000000 30.080200 19.253359 -9.877604 0.127041 17.255951 7.079582 -0.950000 0.049152 -5.952734 -0.268455 -7.902858 12.678399 -2.257020 17.820248 -9.089651 1.903324 0.340090 0.894494 -0.020099 -6.739261 -20.378653 6.960186 
0.155518 54.114609 0.079485 -9.025331 2.734350 -0.244329 28.397400 -4.646221 -1.132310 -1.406263 1.884133 -2.227365 -7.103958 4.385960 -0.387198 12.056499 -2.334709 7.251982 -8.032918 -10.037837 -0.520686 -65.970314 12.465168 -19.605713 -22.332241 -5.000000 31.575739 -23.953396 2.785194 17.784895 6.035047 15.294137 -0.807224 62.129749 -4.418148 -8.397798 18.067528 5.000000 29.966949 19.260109 -9.865664 0.150068 17.256607 7.076657 -0.960639 0.077388 -5.942447 -0.260514 -7.920728 12.716618 -2.215448 17.851257 -9.071428 1.897501 0.348162 0.870312 -0.048653 -6.760253 -20.347210 6.960873 
0.153076 54.112167 0.079483 -9.034591 2.724586 -0.234574 28.406515 -4.622620 -1.112738 -1.406906 1.884116 -2.256652 -7.142955 4.376303 -0.385738 12.048326 -2.334911 7.212951 -8.023063 -10.028087 -0.520183 -65.907982 12.419840 -19.502127 -22.392366 -5.000000 31.534779 -23.968019 2.817466 17.698011 6.015229 15.274633 -0.806216 62.120892 -4.350345 -8.289631 18.075264 5.000000 29.857708 19.280033 -9.828910 0.159811 17.264269 7.108634 -0.974636 0.097855 -5.961476 -0.253184 -7.922863 12.723250 -2.201737 17.836596 -9.059214 1.869625 0.368417 0.872590 -0.047772 -6.755835 -20.298870 6.953502 
0.152098 54.111183 0.078992 -9.044317 2.714821 -0.234574 28.407053 -4.609402 -1.118155 -1.397461 1.884108 -2.276178 -7.182890 4.394153 -0.398286 12.039332 -2.344851 7.164166 -8.022971 -10.018332 -0.519680 -65.855484 12.362184 -19.406828 -22.457253 -5.000000 31.447498 -23.957584 2.847577 17.673880 5.988441 15.263866 -0.817653 62.083549 -4.282629 -8.192475 18.085339 5.000000 29.773767 19.265043 -9.800783 0.142431 17.257164 7.096107 -1.006217 0.116268 -5.951175 -0.244363 -7.901660 12.806090 -2.165070 17.841311 -9.052122 1.842077 0.380099 0.878302 -0.008268 -6.756121 -20.299086 6.920905 
